<svg width="455" height="380" viewBox="0 0 455 380" fill="none" xmlns="http://www.w3.org/2000/svg">
<path d="M34.5 197L50.5 214H114.5L113.5 266.5L133 300V358C43.5 310.5 13.5 260 3 197H34.5Z" fill="#D9D9D9"/>
<path d="M8.5 123C27.0183 111.342 38.0048 106.176 58.5 99H87L99 104.5H114.5L113.5 201L52.5 201.5L36.5 187L0 185.5C0.917852 158.64 0.793184 142.928 8.5 123Z" fill="#D9D9D9"/>
<path d="M106 22L115 28L114 96.5H104L98 94L88.5 89.5H59.5L14 109C37.5 64.5 67 35.5 106 22Z" fill="#D9D9D9"/>
<path d="M126.5 102.5L145 89H172L179 97.5L214.5 98L220 156.5H248.5L231.5 176.5L233 201.5H181.5L169.5 190.5H136L125 199.5L126.5 102.5Z" fill="#D9D9D9"/>
<path d="M127 26L115 17.5C147.36 5.32372 167.117 1.56439 205 0L212 89L186 88L170 79.5H142L127 90V26Z" fill="#D9D9D9"/>
<path d="M217 0C257.231 1.17528 276.961 4.01085 302.5 16.5L308 46L293.5 70L302.5 123.5L320 135.5H289L271 145H232L217 0Z" fill="#D9D9D9"/>
<path d="M293 148H329L354.5 266.5L338.5 306L347.5 358C315.407 373.103 293.594 377.631 254 380L237 213.5H248.5L246.5 177L263 157.5H278L293 148Z" fill="#D9D9D9"/>
<path d="M407.5 155L450 156C465.09 253.991 442.879 293.394 365.5 348.5L357.5 305.5L373.5 266L348 155L362.5 148L394 149L407.5 155Z" fill="#D9D9D9"/>
<path d="M342.5 142.5V139L316 120L306 72.5L321.5 49L316 22C383.854 51.8754 409.88 80.4416 445 142.5H408.5L392.5 137H356.5L342.5 142.5Z" fill="#D9D9D9"/>
<path d="M180.5 213.5H223.5L236.5 380C199.027 378.529 178.777 375.296 145.5 360.5V296.5L126 262.5V211.5L139.5 201H165L180.5 213.5Z" fill="#D9D9D9"/>
</svg>
